<svg id="visual" viewBox="0 0 900 238" width="900" height="238" xmlns="http://www.w3.org/2000/svg" xmlns:xlink="http://www.w3.org/1999/xlink" version="1.1"><rect x="0" y="0" width="900" height="238" fill="#000"></rect><path d="M0 89L21.5 84.5C43 80 86 71 128.8 69.3C171.7 67.7 214.3 73.3 257.2 78.2C300 83 343 87 385.8 87.5C428.7 88 471.3 85 514.2 83.2C557 81.3 600 80.7 642.8 78.3C685.7 76 728.3 72 771.2 72.2C814 72.3 857 76.7 878.5 78.8L900 81L900 0L878.5 0C857 0 814 0 771.2 0C728.3 0 685.7 0 642.8 0C600 0 557 0 514.2 0C471.3 0 428.7 0 385.8 0C343 0 300 0 257.2 0C214.3 0 171.7 0 128.8 0C86 0 43 0 21.5 0L0 0Z" fill="#112732"></path><path d="M0 55L21.5 59C43 63 86 71 128.8 71.5C171.7 72 214.3 65 257.2 63.8C300 62.7 343 67.3 385.8 69.2C428.7 71 471.3 70 514.2 69C557 68 600 67 642.8 65.8C685.7 64.7 728.3 63.3 771.2 60.5C814 57.7 857 53.3 878.5 51.2L900 49L900 0L878.5 0C857 0 814 0 771.2 0C728.3 0 685.7 0 642.8 0C600 0 557 0 514.2 0C471.3 0 428.7 0 385.8 0C343 0 300 0 257.2 0C214.3 0 171.7 0 128.8 0C86 0 43 0 21.5 0L0 0Z" fill="#1e3946"></path><path d="M0 39L21.5 40.7C43 42.3 86 45.7 128.8 49.2C171.7 52.7 214.3 56.3 257.2 56.7C300 57 343 54 385.8 52.3C428.7 50.7 471.3 50.3 514.2 48.7C557 47 600 44 642.8 43.3C685.7 42.7 728.3 44.3 771.2 45.5C814 46.7 857 47.3 878.5 47.7L900 48L900 0L878.5 0C857 0 814 0 771.2 0C728.3 0 685.7 0 642.8 0C600 0 557 0 514.2 0C471.3 0 428.7 0 385.8 0C343 0 300 0 257.2 0C214.3 0 171.7 0 128.8 0C86 0 43 0 21.5 0L0 0Z" fill="#2b4b5b"></path><path d="M0 38L21.5 37.7C43 37.3 86 36.7 128.8 37.8C171.7 39 214.3 42 257.2 40.7C300 39.3 343 33.7 385.8 30C428.7 26.3 471.3 24.7 514.2 25.8C557 27 600 31 642.8 33.8C685.7 36.7 728.3 38.3 771.2 36.2C814 34 857 28 878.5 25L900 22L900 0L878.5 0C857 0 814 0 771.2 0C728.3 0 685.7 0 642.8 0C600 0 557 0 514.2 0C471.3 0 428.7 0 385.8 0C343 0 300 0 257.2 0C214.3 0 171.7 0 128.8 0C86 0 43 0 21.5 0L0 0Z" fill="#385e71"></path><path d="M0 19L21.5 17.5C43 16 86 13 128.8 12C171.7 11 214.3 12 257.2 14.7C300 17.3 343 21.7 385.8 21.2C428.7 20.7 471.3 15.3 514.2 14.2C557 13 600 16 642.8 17.7C685.7 19.3 728.3 19.7 771.2 20C814 20.3 857 20.7 878.5 20.8L900 21L900 0L878.5 0C857 0 814 0 771.2 0C728.3 0 685.7 0 642.8 0C600 0 557 0 514.2 0C471.3 0 428.7 0 385.8 0C343 0 300 0 257.2 0C214.3 0 171.7 0 128.8 0C86 0 43 0 21.5 0L0 0Z" fill="#467287"></path></svg>