<svg xmlns="http://www.w3.org/2000/svg" width="900" height="157" viewBox="0 0 900 157" fill="none">
  <path d="M0 117L21.5 127.5C43 138 86 159 128.8 156.5C171.7 154 214.3 128 257.2 114.3C300 100.7 343 99.3 385.8 109.7C428.7 120 471.3 142 514.2 144.5C557 147 600 130 642.8 129.2C685.7 128.3 728.3 143.7 771.2 141.7C814 139.7 857 120.3 878.5 110.7L900 101V0H878.5C857 0 814 0 771.2 0C728.3 0 685.7 0 642.8 0C600 0 557 0 514.2 0C471.3 0 428.7 0 385.8 0C343 0 300 0 257.2 0C214.3 0 171.7 0 128.8 0C86 0 43 0 21.5 0H0V117Z" fill="#001122"/>
    
</svg>
